# xmcd
#
# Track frame offsets:
#	187
#	16810
#	38112
#	57182
#	74442
#	88747
#	107007
#	128807
#	146685
#	164337
#
# Disc length: 2327 seconds
#
# Revision: 0
# Processed by: cddbd v1.4PL0 Copyright (c) Steve Scherf et al.
# Submitted via: audiograbber 1.80
#
DISCID=8509150a
DTITLE=Various Artist - Signature's III - A Songwriter's Album
DYEAR=1900
DGENRE=
TTITLE0=Hugh Prestwood - Darlin' That's What Your Love Does
TTITLE1=J. Fred Knobloch - Three Verses
TTITLE2=Angela Kaset - Welcome To The Golden Years
TTITLE3=Walt Aldridge - A Little Of You
TTITLE4=Richard Leigh - Southern Pine
TTITLE5=J. Fred Knobloch - Feels Like Mississippi
TTITLE6=Walt Aldridge - Kite For A Heart
TTITLE7=Hugh Prestwood - A Step In The Right Direction
TTITLE8=Angela Kaset - From Our House To Yours
TTITLE9=Richard Leigh - The Night They Made The First Cub Scout
EXTD=
EXTT0=
EXTT1=
EXTT2=
EXTT3=
EXTT4=
EXTT5=
EXTT6=
EXTT7=
EXTT8=
EXTT9=
PLAYORDER=
